<svg width="15" height="15" viewBox="0 0 15 15" fill="none" xmlns="http://www.w3.org/2000/svg">
<g id="Vector">
<path d="M7.5 14.5C3.62941 14.5 0.5 11.3706 0.5 7.5C0.5 3.62941 3.62941 0.5 7.5 0.5C11.3706 0.5 14.5 3.62941 14.5 7.5C14.5 11.3706 11.3706 14.5 7.5 14.5ZM7.5 1.32353C4.08235 1.32353 1.32353 4.08235 1.32353 7.5C1.32353 10.9176 4.08235 13.6765 7.5 13.6765C10.9176 13.6765 13.6765 10.9176 13.6765 7.5C13.6765 4.08235 10.9176 1.32353 7.5 1.32353Z" fill="#6B6B6B"/>
<path d="M3.79412 7.08824H11.2059V7.91177H3.79412V7.08824Z" fill="#6B6B6B"/>
<path d="M7.08824 3.79412H7.91177V11.2059H7.08824V3.79412Z" fill="#6B6B6B"/>
</g>
</svg>
