<svg width="30" height="30" viewBox="0 0 30 30" fill="none" xmlns="http://www.w3.org/2000/svg">
<g id="chevron-forward-circle">
<path id="Vector" d="M2.81494 15.001C2.81494 21.7316 8.27178 27.1885 15.0024 27.1885C21.7331 27.1885 27.1899 21.7316 27.1899 15.001C27.1899 8.27031 21.7331 2.81348 15.0024 2.81348C8.27178 2.81348 2.81494 8.27031 2.81494 15.001ZM16.6222 15.001L11.6604 10.0387C11.492 9.86143 11.3996 9.62541 11.4027 9.38095C11.4058 9.13648 11.5043 8.90291 11.6772 8.73004C11.8501 8.55716 12.0836 8.45866 12.3281 8.45553C12.5726 8.4524 12.8086 8.54489 12.9858 8.71328L18.6108 14.3383C18.7865 14.5141 18.8852 14.7524 18.8852 15.001C18.8852 15.2495 18.7865 15.4879 18.6108 15.6637L12.9858 21.2887C12.8086 21.4571 12.5726 21.5496 12.3281 21.5464C12.0836 21.5433 11.8501 21.4448 11.6772 21.2719C11.5043 21.099 11.4058 20.8655 11.4027 20.621C11.3996 20.3765 11.492 20.1405 11.6604 19.9633L16.6222 15.001Z" fill="#FFC148"/>
</g>
</svg>
