<svg width="38" height="38" viewBox="0 0 38 38" fill="none" xmlns="http://www.w3.org/2000/svg">
<path d="M35.624 9.50087C35.624 8.24109 35.1236 7.03291 34.2328 6.14211C33.342 5.25131 32.1338 4.75087 30.874 4.75087H29.6865V3.59677C29.6865 2.95774 29.1952 2.40927 28.5562 2.37735C28.3956 2.36962 28.2352 2.39456 28.0845 2.45067C27.9339 2.50678 27.7962 2.59289 27.6798 2.70378C27.5635 2.81467 27.4708 2.94804 27.4075 3.09579C27.3442 3.24355 27.3115 3.40262 27.3115 3.56337V4.75087H10.6865V3.59677C10.6865 2.95774 10.1952 2.40927 9.55617 2.37735C9.39561 2.36962 9.23515 2.39456 9.08451 2.45067C8.93388 2.50678 8.7962 2.59289 8.67983 2.70378C8.56345 2.81467 8.47081 2.94804 8.4075 3.09579C8.34419 3.24355 8.31154 3.40262 8.31152 3.56337V4.75087H7.12402C5.86425 4.75087 4.65606 5.25131 3.76527 6.14211C2.87447 7.03291 2.37402 8.24109 2.37402 9.50087V10.3915C2.37402 10.4702 2.4053 10.5457 2.46098 10.6014C2.51665 10.6571 2.59216 10.6884 2.6709 10.6884H35.3272C35.4059 10.6884 35.4814 10.6571 35.5371 10.6014C35.5928 10.5457 35.624 10.4702 35.624 10.3915V9.50087Z" fill="#AEADA4"/>
<path d="M2.37402 30.8765C2.37402 32.1363 2.87447 33.3444 3.76527 34.2352C4.65606 35.126 5.86425 35.6265 7.12402 35.6265H30.874C32.1338 35.6265 33.342 35.126 34.2328 34.2352C35.1236 33.3444 35.624 32.1363 35.624 30.8765V13.2866C35.624 13.2276 35.6006 13.1709 35.5588 13.1292C35.5171 13.0874 35.4604 13.064 35.4014 13.064H2.59668C2.53763 13.064 2.48099 13.0874 2.43924 13.1292C2.39748 13.1709 2.37402 13.2276 2.37402 13.2866V30.8765ZM27.9053 15.439C28.2576 15.439 28.602 15.5434 28.8949 15.7392C29.1878 15.9349 29.4161 16.2131 29.5509 16.5386C29.6858 16.864 29.721 17.2222 29.6523 17.5677C29.5836 17.9133 29.4139 18.2306 29.1648 18.4798C28.9157 18.7289 28.5983 18.8985 28.2528 18.9672C27.9073 19.036 27.5491 19.0007 27.2236 18.8659C26.8981 18.7311 26.6199 18.5028 26.4242 18.2098C26.2285 17.9169 26.124 17.5725 26.124 17.2202C26.124 16.7478 26.3117 16.2947 26.6457 15.9607C26.9798 15.6266 27.4329 15.439 27.9053 15.439ZM27.9053 21.3765C28.2576 21.3765 28.602 21.4809 28.8949 21.6767C29.1878 21.8724 29.4161 22.1506 29.5509 22.4761C29.6858 22.8015 29.721 23.1597 29.6523 23.5052C29.5836 23.8508 29.4139 24.1681 29.1648 24.4173C28.9157 24.6664 28.5983 24.836 28.2528 24.9047C27.9073 24.9735 27.5491 24.9382 27.2236 24.8034C26.8981 24.6686 26.6199 24.4403 26.4242 24.1473C26.2285 23.8544 26.124 23.51 26.124 23.1577C26.124 22.6853 26.3117 22.2322 26.6457 21.8982C26.9798 21.5641 27.4329 21.3765 27.9053 21.3765ZM21.9678 15.439C22.3201 15.439 22.6645 15.5434 22.9574 15.7392C23.2503 15.9349 23.4786 16.2131 23.6134 16.5386C23.7483 16.864 23.7835 17.2222 23.7148 17.5677C23.6461 17.9133 23.4764 18.2306 23.2273 18.4798C22.9782 18.7289 22.6608 18.8985 22.3153 18.9672C21.9698 19.036 21.6116 19.0007 21.2861 18.8659C20.9606 18.7311 20.6824 18.5028 20.4867 18.2098C20.291 17.9169 20.1865 17.5725 20.1865 17.2202C20.1865 16.7478 20.3742 16.2947 20.7082 15.9607C21.0423 15.6266 21.4954 15.439 21.9678 15.439ZM21.9678 21.3765C22.3201 21.3765 22.6645 21.4809 22.9574 21.6767C23.2503 21.8724 23.4786 22.1506 23.6134 22.4761C23.7483 22.8015 23.7835 23.1597 23.7148 23.5052C23.6461 23.8508 23.4764 24.1681 23.2273 24.4173C22.9782 24.6664 22.6608 24.836 22.3153 24.9047C21.9698 24.9735 21.6116 24.9382 21.2861 24.8034C20.9606 24.6686 20.6824 24.4403 20.4867 24.1473C20.291 23.8544 20.1865 23.51 20.1865 23.1577C20.1865 22.6853 20.3742 22.2322 20.7082 21.8982C21.0423 21.5641 21.4954 21.3765 21.9678 21.3765ZM21.9678 27.314C22.3201 27.314 22.6645 27.4184 22.9574 27.6142C23.2503 27.8099 23.4786 28.0881 23.6134 28.4136C23.7483 28.7391 23.7835 29.0972 23.7148 29.4427C23.6461 29.7883 23.4764 30.1056 23.2273 30.3548C22.9782 30.6039 22.6608 30.7735 22.3153 30.8422C21.9698 30.911 21.6116 30.8757 21.2861 30.7409C20.9606 30.6061 20.6824 30.3778 20.4867 30.0848C20.291 29.7919 20.1865 29.4475 20.1865 29.0952C20.1865 28.6228 20.3742 28.1697 20.7082 27.8357C21.0423 27.5016 21.4954 27.314 21.9678 27.314ZM16.0303 21.3765C16.3826 21.3765 16.727 21.4809 17.0199 21.6767C17.3128 21.8724 17.5411 22.1506 17.6759 22.4761C17.8108 22.8015 17.846 23.1597 17.7773 23.5052C17.7086 23.8508 17.5389 24.1681 17.2898 24.4173C17.0407 24.6664 16.7233 24.836 16.3778 24.9047C16.0323 24.9735 15.6741 24.9382 15.3486 24.8034C15.0231 24.6686 14.7449 24.4403 14.5492 24.1473C14.3535 23.8544 14.249 23.51 14.249 23.1577C14.249 22.6853 14.4367 22.2322 14.7707 21.8982C15.1048 21.5641 15.5579 21.3765 16.0303 21.3765ZM16.0303 27.314C16.3826 27.314 16.727 27.4184 17.0199 27.6142C17.3128 27.8099 17.5411 28.0881 17.6759 28.4136C17.8108 28.7391 17.846 29.0972 17.7773 29.4427C17.7086 29.7883 17.5389 30.1056 17.2898 30.3548C17.0407 30.6039 16.7233 30.7735 16.3778 30.8422C16.0323 30.911 15.6741 30.8757 15.3486 30.7409C15.0231 30.6061 14.7449 30.3778 14.5492 30.0848C14.3535 29.7919 14.249 29.4475 14.249 29.0952C14.249 28.6228 14.4367 28.1697 14.7707 27.8357C15.1048 27.5016 15.5579 27.314 16.0303 27.314ZM10.0928 21.3765C10.4451 21.3765 10.7895 21.4809 11.0824 21.6767C11.3753 21.8724 11.6036 22.1506 11.7384 22.4761C11.8733 22.8015 11.9085 23.1597 11.8398 23.5052C11.7711 23.8508 11.6014 24.1681 11.3523 24.4173C11.1032 24.6664 10.7858 24.836 10.4403 24.9047C10.0948 24.9735 9.7366 24.9382 9.41112 24.8034C9.08564 24.6686 8.80745 24.4403 8.61172 24.1473C8.41599 23.8544 8.31152 23.51 8.31152 23.1577C8.31152 22.6853 8.49919 22.2322 8.83324 21.8982C9.16729 21.5641 9.62036 21.3765 10.0928 21.3765ZM10.0928 27.314C10.4451 27.314 10.7895 27.4184 11.0824 27.6142C11.3753 27.8099 11.6036 28.0881 11.7384 28.4136C11.8733 28.7391 11.9085 29.0972 11.8398 29.4427C11.7711 29.7883 11.6014 30.1056 11.3523 30.3548C11.1032 30.6039 10.7858 30.7735 10.4403 30.8422C10.0948 30.911 9.7366 30.8757 9.41112 30.7409C9.08564 30.6061 8.80745 30.3778 8.61172 30.0848C8.41599 29.7919 8.31152 29.4475 8.31152 29.0952C8.31152 28.6228 8.49919 28.1697 8.83324 27.8357C9.16729 27.5016 9.62036 27.314 10.0928 27.314Z" fill="#AEADA4"/>
</svg>
