<svg width="10" height="10" viewBox="0 0 10 10" fill="none" xmlns="http://www.w3.org/2000/svg">
<path d="M5.57367 4.99764L9.88136 0.685742C9.95736 0.60937 9.99999 0.505993 9.99992 0.398254C9.99984 0.290514 9.95708 0.187194 9.88098 0.110924C9.72866 -0.0406258 9.46039 -0.0413911 9.30654 0.111689L5 4.42359L0.691933 0.110541C0.538853 -0.0406258 0.270579 -0.0398605 0.118264 0.111307C0.0804576 0.148962 0.0505295 0.19377 0.0302261 0.243116C0.00992265 0.292462 -0.000349455 0.345357 9.07158e-06 0.398716C9.07158e-06 0.507403 0.0421062 0.609201 0.118264 0.684594L4.42595 4.99726L0.118647 9.3103C0.0426364 9.38679 6.99373e-05 9.49031 0.000285173 9.59814C0.000500409 9.70597 0.0434799 9.80932 0.119795 9.8855C0.193656 9.9586 0.298133 10.0007 0.406055 10.0007H0.408352C0.516656 10.0003 0.621134 9.95783 0.693464 9.88397L5 5.57207L9.30807 9.88512C9.38423 9.96089 9.48603 10.003 9.59395 10.003C9.64732 10.0031 9.70019 9.99274 9.74952 9.97239C9.79885 9.95204 9.84367 9.92214 9.88141 9.8844C9.91914 9.84667 9.94905 9.80184 9.9694 9.75251C9.98975 9.70318 10.0001 9.65031 10 9.59695C10 9.48864 9.9579 9.38646 9.88136 9.31107L5.57367 4.99764Z" fill="#740000"/>
</svg>
