<svg width="28" height="21" viewBox="0 0 28 21" fill="none" xmlns="http://www.w3.org/2000/svg">
<path d="M3.03125 0H24.9688C26.3667 0 27.5 1.13326 27.5 2.53125V17.7188C27.5 19.1167 26.3667 20.25 24.9688 20.25H3.03125C1.63326 20.25 0.5 19.1167 0.5 17.7188V2.53125C0.5 1.13326 1.63326 0 3.03125 0ZM3.03125 2.53125V4.68308C4.21366 5.64595 6.0987 7.14319 10.1286 10.2988C11.0167 10.9973 12.7759 12.6756 14 12.656C15.2239 12.6758 16.9837 10.9971 17.8714 10.2988C21.9007 7.14366 23.7862 5.64611 24.9688 4.68308V2.53125H3.03125ZM24.9688 17.7188V7.93114C23.7604 8.8936 22.0468 10.2442 19.4349 12.2894C18.2823 13.1967 16.2638 15.1996 14 15.1874C11.7473 15.1996 9.75441 13.2258 8.56556 12.2899C5.95374 10.2447 4.23966 8.89371 3.03125 7.9312V17.7188H24.9688Z" fill="#333E53"/>
</svg>
