<svg width="24" height="28" viewBox="0 0 24 28" fill="none" xmlns="http://www.w3.org/2000/svg">
<path d="M21.4286 12.0356H20.1429V8.1785C20.1429 3.68922 16.4893 0.0356445 12 0.0356445C7.51071 0.0356445 3.85714 3.68922 3.85714 8.1785V12.0356H2.57143C1.15179 12.0356 0 13.1874 0 14.6071V24.8928C0 26.3124 1.15179 27.4642 2.57143 27.4642H21.4286C22.8482 27.4642 24 26.3124 24 24.8928V14.6071C24 13.1874 22.8482 12.0356 21.4286 12.0356ZM15.8571 12.0356H8.14286V8.1785C8.14286 6.05172 9.87321 4.32136 12 4.32136C14.1268 4.32136 15.8571 6.05172 15.8571 8.1785V12.0356Z" fill="#333E53"/>
</svg>
