<svg width="85" height="56" viewBox="0 0 85 56" fill="none" xmlns="http://www.w3.org/2000/svg">
<g clip-path="url(#clip0_174_2692)">
<path d="M50.2417 56C53.1867 55.2023 59.6871 52.5858 62.1288 48.5014C62.8249 47.3314 64.4741 44.3214 65.5022 41.641C66.5302 38.9607 68.9291 27.0161 70 21.3789C68.1795 24.0912 64.2813 30.8877 63.2533 36.3761C63.0747 36.7603 62.9086 37.3375 62.7066 38.0392C62.1817 39.8629 61.4146 42.5277 59.5586 44.8319C57.2181 47.7377 52.7583 50.6287 50.2417 51.3732H29.5195C21.1664 51.3732 15.0086 54.4577 12.9739 56H13.7771H50.2417Z" fill="#071419"/>
<path fill-rule="evenodd" clip-rule="evenodd" d="M23.5759 0H54.9001C53.8292 1.32953 50.9163 4.81823 47.8321 8.13675C44.7479 11.4553 38.6223 12.3913 35.945 12.4444C29.2625 12.3168 26.4139 13.8803 25.8249 14.6781C22.7406 14.6781 20.7916 17.7626 20.2026 19.3048C18.971 24.6762 16.54 36.057 16.6685 38.6097C16.7971 41.1624 19.7206 41.6942 21.1664 41.641H45.7438C47.8854 41.641 48.9611 40.2547 49.8956 39.0502C50.0126 38.8995 50.1273 38.7516 50.2417 38.6097C51.2697 37.3333 51.6339 34.6743 51.6874 33.5043C55.5427 23.6764 65.5022 21.3257 70 21.3789C68.1795 24.0912 64.2813 30.8877 63.2533 36.3761C63.0747 36.7603 62.9086 37.3375 62.7066 38.0392C62.1817 39.8629 61.4146 42.5277 59.5586 44.8319C57.2181 47.7377 52.7583 50.6287 50.2417 51.3732H29.5195C21.1664 51.3732 15.0086 54.4577 12.9739 56H10.4037C0.765492 53.8302 -0.466058 45.5233 0.122944 41.641L4.78141 19.3048C4.88851 18.8262 5.32758 17.0712 6.22715 13.8803C7.12671 10.6895 8.52961 8.72175 9.11861 8.13675C13.4879 2.01026 20.5774 0.159544 23.5759 0Z" fill="#273043"/>
<path d="M25.8249 14.6781H40.7641C42.9059 13.9335 47.3502 12.2849 49.4385 9.89174C51.5268 7.49858 54.9373 2.02524 54.9001 0C53.8292 1.32953 50.9163 4.81823 47.8321 8.13675C44.7479 11.4553 38.6223 12.3913 35.945 12.4444C29.2625 12.3168 26.4139 13.8803 25.8249 14.6781Z" fill="#071419"/>
<path d="M23 19.0792L39.4808 38C46.1594 30.615 61.1645 15.5215 67.7568 14.2277C71.5567 12.1149 80.0419 7.83849 84.1518 7.30219C60.4638 10.0754 40.3979 32.3485 39.4977 33.5872C39.4994 33.6083 39.4939 33.6239 39.4808 33.6337C39.4566 33.6518 39.4626 33.6355 39.4977 33.5872C39.432 32.7705 28.5651 23.6507 23 19.0792Z" fill="#F9AC14"/>
<path fill-rule="evenodd" clip-rule="evenodd" d="M39.4977 33.5872C39.4626 33.6355 39.4566 33.6518 39.4808 33.6337C39.4939 33.6239 39.4994 33.6083 39.4977 33.5872ZM84.3992 7.27395C84.3167 7.28313 84.2342 7.29254 84.1518 7.30219C84.2362 7.29118 84.3187 7.28175 84.3992 7.27395Z" fill="#FEE60F" fill-opacity="0.4"/>
<path d="M84.3992 7.27395C89.4081 6.7888 62.1016 0.320159 39.4808 21.9901L38.8345 22.637C36.5186 19.9417 30.1094 15.4568 23 19.0792C28.5651 23.6507 39.432 32.7705 39.4977 33.5872C40.3979 32.3485 60.4638 10.0754 84.1518 7.30219C84.2362 7.29118 84.3187 7.28175 84.3992 7.27395Z" fill="#FFC148"/>
</g>
<defs>
<clipPath id="clip0_174_2692">
<rect width="85" height="56" fill="white"/>
</clipPath>
</defs>
</svg>
