<svg width="59" height="49" viewBox="0 0 59 49" fill="none" xmlns="http://www.w3.org/2000/svg">
<rect x="2.5" y="4.5" width="45" height="42" rx="21" fill="#D9D9D9" stroke="black" stroke-width="5"/>
<path d="M11 19.8396L23.5664 37.3383C28.7363 30.0075 41.1001 16.8457 45.455 13.7407C48.3965 11.6433 55.1564 8.68141 58.3379 8.14905C40.0009 10.9019 24.4547 34.3869 23.7579 35.6165C23.7592 35.6375 23.5765 32.9943 23.5664 33.004C23.5477 33.022 23.7307 35.6645 23.7579 35.6165C23.707 34.8059 15.3597 24.89 11 19.8396Z" fill="black"/>
<path fill-rule="evenodd" clip-rule="evenodd" d="M23.7579 35.6165C23.7307 35.6645 23.5477 33.022 23.5664 33.004C23.5765 32.9943 23.7592 35.6375 23.7579 35.6165ZM58.5294 8.12102C58.4656 8.13013 58.4017 8.13947 58.3379 8.14905C58.4032 8.13813 58.4671 8.12877 58.5294 8.12102Z" fill="black"/>
<path d="M58.5294 8.12102C62.4068 7.63944 41.5592 1.66221 24.0483 23.1729L23.2209 24.4607C21.4281 21.7853 16.1872 18.0219 11 19.8396C15.3597 24.89 23.707 34.8059 23.7579 35.6165C24.4547 34.3869 40.0009 10.9019 58.3379 8.14905C58.4032 8.13813 58.4671 8.12877 58.5294 8.12102Z" fill="#FFC148"/>
</svg>
