<svg width="40" height="40" viewBox="0 0 40 40" fill="none" xmlns="http://www.w3.org/2000/svg">
<g id="notifications">
<path id="Vector" d="M34.3824 26.6649C34.2527 26.5086 34.1254 26.3524 34.0004 26.2016C32.2816 24.1227 31.2418 22.868 31.2418 16.9828C31.2418 13.9359 30.5129 11.4359 29.0761 9.56094C28.0168 8.17578 26.5847 7.125 24.6972 6.34844C24.6729 6.33493 24.6512 6.3172 24.6332 6.2961C23.9543 4.02266 22.0964 2.5 20.0011 2.5C17.9058 2.5 16.0488 4.02266 15.3699 6.29375C15.3518 6.31408 15.3304 6.33125 15.3066 6.34453C10.9019 8.15782 8.76128 11.6367 8.76128 16.9805C8.76128 22.868 7.723 24.1227 6.00269 26.1992C5.87769 26.35 5.75035 26.5031 5.62066 26.6625C5.28566 27.0665 5.07341 27.558 5.00903 28.0789C4.94465 28.5998 5.03083 29.1282 5.25738 29.6016C5.73941 30.6172 6.76675 31.2477 7.93941 31.2477H32.0714C33.2386 31.2477 34.2589 30.618 34.7425 29.607C34.9701 29.1335 35.0571 28.6047 34.9932 28.0832C34.9294 27.5618 34.7174 27.0695 34.3824 26.6649V26.6649Z" fill="#FFC148"/>
<path id="Vector_2" d="M20.0008 37.501C21.1299 37.5001 22.2377 37.1936 23.2067 36.6141C24.1757 36.0345 24.9698 35.2035 25.5047 34.2091C25.5299 34.1615 25.5424 34.1081 25.5409 34.0543C25.5393 34.0004 25.5239 33.9478 25.4961 33.9016C25.4682 33.8555 25.4289 33.8173 25.382 33.7908C25.335 33.7643 25.282 33.7504 25.2281 33.7505H14.7751C14.7211 33.7503 14.668 33.7641 14.6209 33.7905C14.5739 33.8169 14.5345 33.8551 14.5065 33.9013C14.4786 33.9475 14.4631 34.0001 14.4616 34.0541C14.46 34.108 14.4725 34.1614 14.4977 34.2091C15.0326 35.2034 15.8265 36.0343 16.7954 36.6139C17.7642 37.1934 18.8719 37.5 20.0008 37.501Z" fill="#FFC148"/>
</g>
</svg>
