<svg width="65" height="65" viewBox="0 0 65 65" fill="none" xmlns="http://www.w3.org/2000/svg">
<g id="person-circle">
<path id="Vector" d="M32.499 6.09131C17.9388 6.09131 6.09277 17.9373 6.09277 32.4976C6.09277 47.0578 17.9388 58.9038 32.499 58.9038C47.0593 58.9038 58.9053 47.0578 58.9053 32.4976C58.9053 17.9373 47.0593 6.09131 32.499 6.09131ZM26.1234 20.922C27.7319 19.217 29.9955 18.2788 32.499 18.2788C35.0025 18.2788 37.2458 19.2233 38.8607 20.9372C40.4971 22.6739 41.2931 25.0073 41.1052 27.5159C40.7294 32.4976 36.87 36.5601 32.499 36.5601C28.128 36.5601 24.261 32.4976 23.8929 27.5147C23.7063 24.9857 24.501 22.6447 26.1234 20.922ZM32.499 54.8413C29.5162 54.8433 26.5634 54.2463 23.8156 53.0857C21.0679 51.9251 18.5812 50.2245 16.5029 48.0849C17.6932 46.3875 19.2098 44.9443 20.9641 43.8396C24.2001 41.7651 28.2956 40.6226 32.499 40.6226C36.7024 40.6226 40.798 41.7651 44.0302 43.8396C45.7859 44.9437 47.3039 46.387 48.4951 48.0849C46.4171 50.2248 43.9304 51.9255 41.1826 53.0861C38.4348 54.2467 35.4819 54.8436 32.499 54.8413V54.8413Z" fill="white" stroke="white" stroke-width="2"/>
</g>
</svg>
