<svg width="30" height="33" viewBox="0 0 30 33" fill="none" xmlns="http://www.w3.org/2000/svg">
<path d="M21.331 31.7499C25.3612 31.7499 28.6283 28.4828 28.6283 24.4526C28.6283 20.4224 25.3612 17.1553 21.331 17.1553C17.3008 17.1553 14.0337 20.4224 14.0337 24.4526C14.0337 28.4828 17.3008 31.7499 21.331 31.7499Z" stroke="white" stroke-width="2.35294" stroke-linecap="round" stroke-linejoin="round"/>
<path d="M21.3311 21.5342V24.2707L22.7905 25.9126" stroke="white" stroke-width="2.35294" stroke-linecap="round" stroke-linejoin="round"/>
<path d="M1.87158 14.7227H9.9797" stroke="white" stroke-width="2.35294" stroke-linecap="round" stroke-linejoin="round"/>
<path d="M27.8176 11.4797V8.23641C27.8176 6.44521 26.3656 4.99316 24.5743 4.99316H5.11483C3.32363 4.99316 1.87158 6.44521 1.87158 8.23641V27.6959C1.87158 29.4871 3.32363 30.9391 5.11483 30.9391H9.9797" stroke="white" stroke-width="2.35294" stroke-linecap="round" stroke-linejoin="round"/>
<path d="M19.7095 1.75V8.23649" stroke="white" stroke-width="2.35294" stroke-linecap="round" stroke-linejoin="round"/>
<path d="M9.97998 1.75V8.23649" stroke="white" stroke-width="2.35294" stroke-linecap="round" stroke-linejoin="round"/>
</svg>
