<svg width="27" height="32" viewBox="0 0 27 32" fill="none" xmlns="http://www.w3.org/2000/svg">
<path d="M13.5 15.9286C17.7609 15.9286 21.2143 12.3633 21.2143 7.96429C21.2143 3.56526 17.7609 0 13.5 0C9.23906 0 5.78571 3.56526 5.78571 7.96429C5.78571 12.3633 9.23906 15.9286 13.5 15.9286ZM18.9 17.9196H17.8935C16.5556 18.5543 15.067 18.9152 13.5 18.9152C11.933 18.9152 10.4504 18.5543 9.10647 17.9196H8.1C3.62812 17.9196 0 21.6653 0 26.2821V28.8705C0 30.5194 1.29576 31.8571 2.89286 31.8571H24.1071C25.7042 31.8571 27 30.5194 27 28.8705V26.2821C27 21.6653 23.3719 17.9196 18.9 17.9196Z" fill="#333E53"/>
</svg>
